STARTFONT 2.1
FONT -DEC-David-Bold-O-Normal--12-120-75-75-P-68-ISO8859-8
SIZE 12 75 75
FONTBOUNDINGBOX 13 14 0 -3

STARTPROPERTIES 26
FONTNAME_REGISTRY ""
FAMILY_NAME "David"
FOUNDRY "DEC"
WEIGHT_NAME "Bold"
SETWIDTH_NAME "Normal"
SLANT "O"
ADD_STYLE_NAME ""
PIXEL_SIZE 12
RESOLUTION_X 75
RESOLUTION_Y 75
SPACING "P"
AVERAGE_WIDTH 68
CHARSET_REGISTRY "ISO8859"
CHARSET_ENCODING "8"
CHARSET_COLLECTIONS "ASCII ISO8859-8 "
FULL_NAME "David Bold Oblique"
COPYRIGHT "Digital Israel"
CAP_HEIGHT 9
X_HEIGHT 6
_DEC_DEVICE_FONTNAMES "PS=David-BoldOblique-ISOLatinHebrew"
QUAD_WIDTH 6
POINT_SIZE 120
WEIGHT 10
DEFAULT_CHAR 0
FONT_DESCENT 3
FONT_ASCENT 11
ENDPROPERTIES

CHARS 152

STARTCHAR space
ENCODING 32
SWIDTH 240 0
DWIDTH 3 0
BBX 1 1 0 0
BITMAP
00
ENDCHAR

STARTCHAR exclam
ENCODING 33
SWIDTH 400 0
DWIDTH 5 0
BBX 4 9 1 0
BITMAP
30
30
30
60
60
40
00
C0
C0
ENDCHAR

STARTCHAR quotedbl
ENCODING 34
SWIDTH 560 0
DWIDTH 7 0
BBX 5 3 3 6
BITMAP
D8
D8
90
ENDCHAR

STARTCHAR numbersign
ENCODING 35
SWIDTH 560 0
DWIDTH 7 0
BBX 7 9 0 0
BITMAP
14
14
7E
28
28
28
FC
50
50
ENDCHAR

STARTCHAR dollar
ENCODING 36
SWIDTH 560 0
DWIDTH 7 0
BBX 7 11 0 -1
BITMAP
04
1C
2A
68
70
38
1C
2C
A8
70
40
ENDCHAR

STARTCHAR percent
ENCODING 37
SWIDTH 960 0
DWIDTH 12 0
BBX 11 9 1 0
BITMAP
3100
6F00
CA00
D400
E4C0
09A0
0B20
1340
1380
ENDCHAR

STARTCHAR ampersand
ENCODING 38
SWIDTH 720 0
DWIDTH 9 0
BBX 9 9 0 0
BITMAP
0C00
1A00
1A00
1C00
7B80
ED00
CE00
E680
7B00
ENDCHAR

STARTCHAR quoteright
ENCODING 39
SWIDTH 320 0
DWIDTH 4 0
BBX 3 3 2 6
BITMAP
60
60
C0
ENDCHAR

STARTCHAR parenleft
ENCODING 40
SWIDTH 480 0
DWIDTH 6 0
BBX 5 11 1 -2
BITMAP
08
30
60
60
C0
C0
C0
C0
40
60
20
ENDCHAR

STARTCHAR parenright
ENCODING 41
SWIDTH 480 0
DWIDTH 6 0
BBX 5 11 0 -2
BITMAP
20
30
10
18
18
18
18
30
30
60
80
ENDCHAR

STARTCHAR asterisk
ENCODING 42
SWIDTH 480 0
DWIDTH 6 0
BBX 5 5 1 4
BITMAP
20
F8
70
F8
20
ENDCHAR

STARTCHAR plus
ENCODING 43
SWIDTH 560 0
DWIDTH 7 0
BBX 5 5 1 1
BITMAP
20
20
F8
20
20
ENDCHAR

STARTCHAR comma
ENCODING 44
SWIDTH 320 0
DWIDTH 4 0
BBX 3 3 0 -1
BITMAP
60
60
C0
ENDCHAR

STARTCHAR minus
ENCODING 45
SWIDTH 640 0
DWIDTH 8 0
BBX 6 1 1 3
BITMAP
FC
ENDCHAR

STARTCHAR period
ENCODING 46
SWIDTH 320 0
DWIDTH 4 0
BBX 2 2 1 0
BITMAP
C0
C0
ENDCHAR

STARTCHAR slash
ENCODING 47
SWIDTH 400 0
DWIDTH 5 0
BBX 4 9 1 0
BITMAP
10
10
30
20
60
40
C0
80
80
ENDCHAR

STARTCHAR zero
ENCODING 48
SWIDTH 480 0
DWIDTH 6 0
BBX 7 9 0 0
BITMAP
1C
64
66
C6
C6
CC
CC
D8
70
ENDCHAR

STARTCHAR one
ENCODING 49
SWIDTH 480 0
DWIDTH 6 0
BBX 6 9 0 0
BITMAP
0C
3C
18
38
30
30
60
60
F0
ENDCHAR

STARTCHAR two
ENCODING 50
SWIDTH 480 0
DWIDTH 6 0
BBX 6 9 0 0
BITMAP
38
7C
4C
0C
18
30
40
F8
F0
ENDCHAR

STARTCHAR three
ENCODING 51
SWIDTH 480 0
DWIDTH 6 0
BBX 7 9 0 0
BITMAP
1C
36
06
0E
18
0C
CC
CC
78
ENDCHAR

STARTCHAR four
ENCODING 52
SWIDTH 480 0
DWIDTH 6 0
BBX 6 9 0 0
BITMAP
04
0C
1C
28
48
FC
F8
10
30
ENDCHAR

STARTCHAR five
ENCODING 53
SWIDTH 480 0
DWIDTH 6 0
BBX 7 9 0 0
BITMAP
1E
3C
20
78
0C
0C
CC
D8
70
ENDCHAR

STARTCHAR six
ENCODING 54
SWIDTH 480 0
DWIDTH 6 0
BBX 7 9 0 0
BITMAP
0E
38
60
78
CC
CC
CC
D8
70
ENDCHAR

STARTCHAR seven
ENCODING 55
SWIDTH 480 0
DWIDTH 6 0
BBX 7 9 1 0
BITMAP
FE
FC
88
10
30
20
60
40
C0
ENDCHAR

STARTCHAR eight
ENCODING 56
SWIDTH 480 0
DWIDTH 6 0
BBX 6 9 0 0
BITMAP
3C
64
6C
38
78
DC
8C
D8
70
ENDCHAR

STARTCHAR nine
ENCODING 57
SWIDTH 480 0
DWIDTH 6 0
BBX 7 9 0 0
BITMAP
1C
36
66
66
6E
3C
0C
38
E0
ENDCHAR

STARTCHAR colon
ENCODING 58
SWIDTH 400 0
DWIDTH 5 0
BBX 3 6 1 0
BITMAP
60
60
00
00
C0
C0
ENDCHAR

STARTCHAR semicolon
ENCODING 59
SWIDTH 400 0
DWIDTH 5 0
BBX 4 7 0 -1
BITMAP
30
30
00
00
60
60
C0
ENDCHAR

STARTCHAR less
ENCODING 60
SWIDTH 720 0
DWIDTH 9 0
BBX 7 7 1 0
BITMAP
06
1C
70
C0
70
1C
06
ENDCHAR

STARTCHAR equal
ENCODING 61
SWIDTH 640 0
DWIDTH 8 0
BBX 6 3 1 2
BITMAP
FC
00
FC
ENDCHAR

STARTCHAR greater
ENCODING 62
SWIDTH 720 0
DWIDTH 9 0
BBX 7 7 1 0
BITMAP
C0
70
1C
06
1C
70
C0
ENDCHAR

STARTCHAR question
ENCODING 63
SWIDTH 480 0
DWIDTH 6 0
BBX 6 9 1 0
BITMAP
38
6C
0C
38
60
40
00
C0
C0
ENDCHAR

STARTCHAR at
ENCODING 64
SWIDTH 960 0
DWIDTH 12 0
BBX 10 10 1 -1
BITMAP
0F00
3880
6040
4D40
DA40
DA40
DA80
CD00
6000
3E00
ENDCHAR

STARTCHAR A
ENCODING 65
SWIDTH 640 0
DWIDTH 8 0
BBX 8 9 0 0
BITMAP
06
0E
0E
1A
12
3E
66
46
EF
ENDCHAR

STARTCHAR B
ENCODING 66
SWIDTH 640 0
DWIDTH 8 0
BBX 9 9 0 0
BITMAP
3F00
1980
1180
3300
3E00
3300
6300
6600
FC00
ENDCHAR

STARTCHAR C
ENCODING 67
SWIDTH 640 0
DWIDTH 8 0
BBX 8 9 1 0
BITMAP
1F
33
62
60
C0
C0
C2
EC
78
ENDCHAR

STARTCHAR D
ENCODING 68
SWIDTH 720 0
DWIDTH 9 0
BBX 9 9 0 0
BITMAP
3E00
1B00
1980
3180
3180
2180
6300
6600
FC00
ENDCHAR

STARTCHAR E
ENCODING 69
SWIDTH 640 0
DWIDTH 8 0
BBX 9 9 0 0
BITMAP
3F80
1980
1800
3100
3E00
3200
6000
6300
FE00
ENDCHAR

STARTCHAR F
ENCODING 70
SWIDTH 640 0
DWIDTH 8 0
BBX 9 9 0 0
BITMAP
3F80
1980
1800
3200
3E00
3400
6000
6000
F000
ENDCHAR

STARTCHAR G
ENCODING 71
SWIDTH 720 0
DWIDTH 9 0
BBX 8 9 1 0
BITMAP
1F
33
62
60
C0
CF
C6
EC
7C
ENDCHAR

STARTCHAR H
ENCODING 72
SWIDTH 800 0
DWIDTH 10 0
BBX 11 9 0 0
BITMAP
3DE0
18C0
18C0
3180
3F80
3180
6300
6300
E780
ENDCHAR

STARTCHAR I
ENCODING 73
SWIDTH 400 0
DWIDTH 5 0
BBX 6 9 0 0
BITMAP
3C
18
18
30
30
30
60
60
F0
ENDCHAR

STARTCHAR J
ENCODING 74
SWIDTH 480 0
DWIDTH 6 0
BBX 8 10 0 -1
BITMAP
0F
06
0C
0C
0C
18
18
D8
F0
60
ENDCHAR

STARTCHAR K
ENCODING 75
SWIDTH 640 0
DWIDTH 8 0
BBX 10 9 0 0
BITMAP
3DC0
1980
1300
3600
3C00
3600
6600
6300
F780
ENDCHAR

STARTCHAR L
ENCODING 76
SWIDTH 640 0
DWIDTH 8 0
BBX 8 9 0 0
BITMAP
3C
18
18
30
30
30
60
63
FE
ENDCHAR

STARTCHAR M
ENCODING 77
SWIDTH 880 0
DWIDTH 11 0
BBX 12 9 0 0
BITMAP
3870
18E0
18E0
3940
2AC0
2EC0
6D80
6D80
E9C0
ENDCHAR

STARTCHAR N
ENCODING 78
SWIDTH 720 0
DWIDTH 9 0
BBX 10 9 0 0
BITMAP
39C0
1880
1980
3D00
2D00
2F00
6600
4600
F200
ENDCHAR

STARTCHAR O
ENCODING 79
SWIDTH 720 0
DWIDTH 9 0
BBX 8 9 1 0
BITMAP
1E
33
63
63
C3
C6
C6
CC
78
ENDCHAR

STARTCHAR P
ENCODING 80
SWIDTH 640 0
DWIDTH 8 0
BBX 9 9 0 0
BITMAP
3F00
1980
1980
3380
3F00
3000
6000
6000
F000
ENDCHAR

STARTCHAR Q
ENCODING 81
SWIDTH 720 0
DWIDTH 9 0
BBX 8 12 1 -3
BITMAP
1E
33
63
63
C3
C6
C6
CC
78
20
76
DC
ENDCHAR

STARTCHAR R
ENCODING 82
SWIDTH 640 0
DWIDTH 8 0
BBX 8 9 0 0
BITMAP
3E
1B
13
33
3E
34
66
66
F7
ENDCHAR

STARTCHAR S
ENCODING 83
SWIDTH 640 0
DWIDTH 8 0
BBX 7 9 1 0
BITMAP
3A
66
62
30
18
0C
8C
CC
F8
ENDCHAR

STARTCHAR T
ENCODING 84
SWIDTH 560 0
DWIDTH 7 0
BBX 8 9 1 0
BITMAP
7F
DA
18
30
30
30
60
60
F0
ENDCHAR

STARTCHAR U
ENCODING 85
SWIDTH 800 0
DWIDTH 10 0
BBX 10 9 1 0
BITMAP
7BC0
3180
3100
6300
6300
6200
C600
C400
7800
ENDCHAR

STARTCHAR V
ENCODING 86
SWIDTH 640 0
DWIDTH 8 0
BBX 9 9 1 0
BITMAP
F780
6300
6600
6C00
6800
7800
7000
6000
4000
ENDCHAR

STARTCHAR W
ENCODING 87
SWIDTH 880 0
DWIDTH 11 0
BBX 12 9 1 0
BITMAP
EF70
6660
6640
6EC0
6A80
3A80
3300
3300
2200
ENDCHAR

STARTCHAR X
ENCODING 88
SWIDTH 640 0
DWIDTH 8 0
BBX 10 9 0 0
BITMAP
7BC0
3180
1B00
0E00
0C00
1E00
3600
6300
F780
ENDCHAR

STARTCHAR Y
ENCODING 89
SWIDTH 560 0
DWIDTH 7 0
BBX 9 9 0 0
BITMAP
7B80
3300
3200
3400
1800
1800
3000
3000
F800
ENDCHAR

STARTCHAR Z
ENCODING 90
SWIDTH 560 0
DWIDTH 7 0
BBX 8 9 0 0
BITMAP
3F
67
06
0C
18
30
60
E2
FE
ENDCHAR

STARTCHAR bracketleft
ENCODING 91
SWIDTH 480 0
DWIDTH 6 0
BBX 7 11 0 -2
BITMAP
1E
18
18
30
30
30
60
60
60
C0
F0
ENDCHAR

STARTCHAR backslash
ENCODING 92
SWIDTH 400 0
DWIDTH 5 0
BBX 4 9 0 0
BITMAP
80
80
C0
40
60
20
30
10
10
ENDCHAR

STARTCHAR bracketright
ENCODING 93
SWIDTH 560 0
DWIDTH 7 0
BBX 7 11 0 -2
BITMAP
1E
06
0C
0C
0C
18
18
18
30
30
F0
ENDCHAR

STARTCHAR asciicircum
ENCODING 94
SWIDTH 640 0
DWIDTH 8 0
BBX 6 5 1 4
BITMAP
10
38
68
CC
84
ENDCHAR

STARTCHAR underscore
ENCODING 95
SWIDTH 480 0
DWIDTH 6 0
BBX 6 1 0 -2
BITMAP
FC
ENDCHAR

STARTCHAR quoteleft
ENCODING 96
SWIDTH 400 0
DWIDTH 5 0
BBX 3 3 2 6
BITMAP
60
C0
C0
ENDCHAR

STARTCHAR a
ENCODING 97
SWIDTH 560 0
DWIDTH 7 0
BBX 7 6 0 0
BITMAP
34
6C
CC
D8
DA
6C
ENDCHAR

STARTCHAR b
ENCODING 98
SWIDTH 480 0
DWIDTH 6 0
BBX 6 9 0 0
BITMAP
70
30
20
78
6C
4C
CC
98
F0
ENDCHAR

STARTCHAR c
ENCODING 99
SWIDTH 400 0
DWIDTH 5 0
BBX 5 6 0 0
BITMAP
38
58
C0
C0
D8
70
ENDCHAR

STARTCHAR d
ENCODING 100
SWIDTH 480 0
DWIDTH 6 0
BBX 7 9 0 0
BITMAP
0E
06
0C
3C
6C
C8
D8
D8
6C
ENDCHAR

STARTCHAR e
ENCODING 101
SWIDTH 480 0
DWIDTH 6 0
BBX 6 6 0 0
BITMAP
38
6C
D8
E0
C8
70
ENDCHAR

STARTCHAR f
ENCODING 102
SWIDTH 240 0
DWIDTH 3 0
BBX 7 12 0 -3
BITMAP
0E
1A
18
3C
10
30
30
30
30
20
E0
C0
ENDCHAR

STARTCHAR g
ENCODING 103
SWIDTH 400 0
DWIDTH 5 0
BBX 7 9 0 -3
BITMAP
3E
6C
6C
38
30
78
9C
CC
78
ENDCHAR

STARTCHAR h
ENCODING 104
SWIDTH 480 0
DWIDTH 6 0
BBX 6 9 0 0
BITMAP
70
30
20
78
6C
6C
C8
D8
DC
ENDCHAR

STARTCHAR i
ENCODING 105
SWIDTH 320 0
DWIDTH 4 0
BBX 4 9 0 0
BITMAP
30
30
00
60
60
60
C0
C0
E0
ENDCHAR

STARTCHAR j
ENCODING 106
SWIDTH 320 0
DWIDTH 4 0
BBX 7 12 0 -3
BITMAP
06
06
00
1C
0C
18
18
18
30
30
B0
60
ENDCHAR

STARTCHAR k
ENCODING 107
SWIDTH 480 0
DWIDTH 6 0
BBX 7 9 0 0
BITMAP
38
18
10
36
3C
78
68
68
CC
ENDCHAR

STARTCHAR l
ENCODING 108
SWIDTH 320 0
DWIDTH 4 0
BBX 4 9 0 0
BITMAP
70
30
20
60
60
40
C0
D0
60
ENDCHAR

STARTCHAR m
ENCODING 109
SWIDTH 720 0
DWIDTH 9 0
BBX 10 6 0 0
BITMAP
DB00
6D80
6D80
C900
DB40
DB80
ENDCHAR

STARTCHAR n
ENCODING 110
SWIDTH 480 0
DWIDTH 6 0
BBX 6 6 0 0
BITMAP
D8
6C
6C
C8
D8
DC
ENDCHAR

STARTCHAR o
ENCODING 111
SWIDTH 480 0
DWIDTH 6 0
BBX 6 6 0 0
BITMAP
38
6C
CC
CC
D8
70
ENDCHAR

STARTCHAR p
ENCODING 112
SWIDTH 480 0
DWIDTH 6 0
BBX 8 9 0 -3
BITMAP
3E
1B
1B
33
36
3C
60
60
F0
ENDCHAR

STARTCHAR q
ENCODING 113
SWIDTH 480 0
DWIDTH 6 0
BBX 6 9 0 -3
BITMAP
34
6C
CC
C8
D8
78
10
30
78
ENDCHAR

STARTCHAR r
ENCODING 114
SWIDTH 400 0
DWIDTH 5 0
BBX 5 6 0 0
BITMAP
D8
68
60
C0
C0
C0
ENDCHAR

STARTCHAR s
ENCODING 115
SWIDTH 400 0
DWIDTH 5 0
BBX 5 6 0 0
BITMAP
78
C8
60
38
98
F0
ENDCHAR

STARTCHAR t
ENCODING 116
SWIDTH 240 0
DWIDTH 3 0
BBX 4 7 0 0
BITMAP
20
F0
60
40
C0
D0
60
ENDCHAR

STARTCHAR u
ENCODING 117
SWIDTH 560 0
DWIDTH 7 0
BBX 7 6 0 0
BITMAP
E6
6C
6C
CC
D8
6C
ENDCHAR

STARTCHAR v
ENCODING 118
SWIDTH 480 0
DWIDTH 6 0
BBX 6 6 0 0
BITMAP
EC
64
6C
68
50
60
ENDCHAR

STARTCHAR w
ENCODING 119
SWIDTH 640 0
DWIDTH 8 0
BBX 9 6 0 0
BITMAP
ED80
6D00
6D00
7E00
6C00
4800
ENDCHAR

STARTCHAR x
ENCODING 120
SWIDTH 480 0
DWIDTH 6 0
BBX 6 6 0 0
BITMAP
6C
38
30
38
58
DC
ENDCHAR

STARTCHAR y
ENCODING 121
SWIDTH 480 0
DWIDTH 6 0
BBX 7 9 0 -3
BITMAP
76
32
34
34
1C
18
10
D0
E0
ENDCHAR

STARTCHAR z
ENCODING 122
SWIDTH 480 0
DWIDTH 6 0
BBX 6 7 0 -1
BITMAP
7C
D8
30
60
C0
E8
30
ENDCHAR

STARTCHAR braceleft
ENCODING 123
SWIDTH 480 0
DWIDTH 6 0
BBX 6 11 1 -2
BITMAP
1C
30
30
30
60
C0
60
60
C0
C0
70
ENDCHAR

STARTCHAR bar
ENCODING 124
SWIDTH 320 0
DWIDTH 4 0
BBX 1 9 2 0
BITMAP
80
80
80
80
80
80
80
80
80
ENDCHAR

STARTCHAR braceright
ENCODING 125
SWIDTH 480 0
DWIDTH 6 0
BBX 6 11 0 -2
BITMAP
38
0C
0C
18
18
0C
18
30
30
30
E0
ENDCHAR

STARTCHAR asciitilde
ENCODING 126
SWIDTH 720 0
DWIDTH 9 0
BBX 7 2 1 3
BITMAP
72
9C
ENDCHAR

STARTCHAR cent
ENCODING 162
SWIDTH 480 0
DWIDTH 6 0
BBX 6 10 0 -2
BITMAP
10
10
3C
68
C0
C0
D8
70
20
20
ENDCHAR

STARTCHAR sterling
ENCODING 163
SWIDTH 480 0
DWIDTH 6 0
BBX 6 9 0 0
BITMAP
1C
34
30
78
30
30
E0
B4
F8
ENDCHAR

STARTCHAR currency
ENCODING 164
SWIDTH 640 0
DWIDTH 8 0
BBX 6 6 1 1
BITMAP
84
78
48
48
78
84
ENDCHAR

STARTCHAR yen
ENCODING 165
SWIDTH 480 0
DWIDTH 6 0
BBX 7 9 0 0
BITMAP
E6
6C
68
30
F8
20
F8
60
F0
ENDCHAR

STARTCHAR brokenbar
ENCODING 166
SWIDTH 320 0
DWIDTH 4 0
BBX 1 9 2 0
BITMAP
80
80
80
00
00
80
80
80
80
ENDCHAR

STARTCHAR section
ENCODING 167
SWIDTH 560 0
DWIDTH 7 0
BBX 7 12 0 -3
BITMAP
0E
16
10
38
5C
4C
64
78
38
10
D0
E0
ENDCHAR

STARTCHAR dieresis
ENCODING 168
SWIDTH 400 0
DWIDTH 5 0
BBX 3 2 2 7
BITMAP
A0
A0
ENDCHAR

STARTCHAR copyright
ENCODING 169
SWIDTH 880 0
DWIDTH 11 0
BBX 9 9 1 0
BITMAP
3E00
4100
9E80
A280
A080
A280
9C80
4100
3E00
ENDCHAR

STARTCHAR multiply
ENCODING 170
SWIDTH 560 0
DWIDTH 7 0
BBX 5 5 1 1
BITMAP
88
70
20
70
88
ENDCHAR

STARTCHAR guillemotleft
ENCODING 171
SWIDTH 720 0
DWIDTH 9 0
BBX 7 5 1 1
BITMAP
36
6C
D8
D8
6C
ENDCHAR

STARTCHAR logicalnot
ENCODING 172
SWIDTH 640 0
DWIDTH 8 0
BBX 6 4 1 2
BITMAP
FC
04
04
04
ENDCHAR

STARTCHAR hyphen
ENCODING 173
SWIDTH 480 0
DWIDTH 6 0
BBX 4 1 1 3
BITMAP
F0
ENDCHAR

STARTCHAR registered
ENCODING 174
SWIDTH 880 0
DWIDTH 11 0
BBX 9 9 1 0
BITMAP
3E00
4100
BC80
9480
9880
9480
B680
4100
3E00
ENDCHAR

STARTCHAR macron
ENCODING 175
SWIDTH 320 0
DWIDTH 4 0
BBX 4 1 1 7
BITMAP
F0
ENDCHAR

STARTCHAR degree
ENCODING 176
SWIDTH 400 0
DWIDTH 5 0
BBX 4 4 1 5
BITMAP
60
90
90
60
ENDCHAR

STARTCHAR plusminus
ENCODING 177
SWIDTH 560 0
DWIDTH 7 0
BBX 5 7 1 0
BITMAP
20
20
F8
20
20
00
F8
ENDCHAR

STARTCHAR twosuperior
ENCODING 178
SWIDTH 320 0
DWIDTH 4 0
BBX 4 5 1 4
BITMAP
60
B0
20
40
F0
ENDCHAR

STARTCHAR threesuperior
ENCODING 179
SWIDTH 320 0
DWIDTH 4 0
BBX 4 5 1 4
BITMAP
70
30
60
30
E0
ENDCHAR

STARTCHAR acute
ENCODING 180
SWIDTH 320 0
DWIDTH 4 0
BBX 3 2 2 7
BITMAP
60
80
ENDCHAR

STARTCHAR mu
ENCODING 181
SWIDTH 560 0
DWIDTH 7 0
BBX 8 9 0 -3
BITMAP
73
36
36
66
6C
76
C0
80
C0
ENDCHAR

STARTCHAR paragraph
ENCODING 182
SWIDTH 560 0
DWIDTH 7 0
BBX 7 12 1 -3
BITMAP
3E
74
F4
EC
E8
68
28
50
50
50
A0
A0
ENDCHAR

STARTCHAR periodcentered
ENCODING 183
SWIDTH 240 0
DWIDTH 3 0
BBX 2 2 1 3
BITMAP
C0
C0
ENDCHAR

STARTCHAR cedilla
ENCODING 184
SWIDTH 320 0
DWIDTH 4 0
BBX 4 3 0 -3
BITMAP
20
B0
60
ENDCHAR

STARTCHAR onesuperior
ENCODING 185
SWIDTH 320 0
DWIDTH 4 0
BBX 3 5 1 4
BITMAP
20
E0
40
40
E0
ENDCHAR

STARTCHAR divide
ENCODING 186
SWIDTH 560 0
DWIDTH 7 0
BBX 5 5 1 1
BITMAP
20
00
F8
00
20
ENDCHAR

STARTCHAR guillemotright
ENCODING 187
SWIDTH 720 0
DWIDTH 9 0
BBX 7 5 1 1
BITMAP
6C
36
36
6C
D8
ENDCHAR

STARTCHAR onequarter
ENCODING 188
SWIDTH 720 0
DWIDTH 9 0
BBX 9 9 0 0
BITMAP
2300
E200
4600
4C00
E900
1B00
3500
2F80
6200
ENDCHAR

STARTCHAR onehalf
ENCODING 189
SWIDTH 720 0
DWIDTH 9 0
BBX 9 9 0 0
BITMAP
2300
E200
4600
4C00
EB00
1D80
3100
2200
6780
ENDCHAR

STARTCHAR threequarters
ENCODING 190
SWIDTH 720 0
DWIDTH 9 0
BBX 9 9 0 0
BITMAP
7300
3200
6600
3C00
E900
1B00
3500
2F80
6200
ENDCHAR

STARTCHAR dblunderscore
ENCODING 223
SWIDTH 480 0
DWIDTH 6 0
BBX 6 8 0 -3
BITMAP
00
00
00
FC
00
00
FC
00
ENDCHAR

STARTCHAR aleph
ENCODING 224
SWIDTH 560 0
DWIDTH 7 0
BBX 7 9 0 0
BITMAP
00
22
36
36
5C
D8
88
EC
EC
ENDCHAR

STARTCHAR beth
ENCODING 225
SWIDTH 560 0
DWIDTH 7 0
BBX 7 9 0 0
BITMAP
00
10
3E
3E
04
04
08
FC
FC
ENDCHAR

STARTCHAR gimmel
ENCODING 226
SWIDTH 480 0
DWIDTH 6 0
BBX 6 9 0 0
BITMAP
00
08
1C
0C
0C
08
18
68
E8
ENDCHAR

STARTCHAR daleth
ENCODING 227
SWIDTH 640 0
DWIDTH 8 0
BBX 7 9 1 0
BITMAP
00
24
7E
7E
08
10
10
20
20
ENDCHAR

STARTCHAR he
ENCODING 228
SWIDTH 560 0
DWIDTH 7 0
BBX 7 9 0 0
BITMAP
00
10
3E
3E
06
44
CC
88
88
ENDCHAR

STARTCHAR waw
ENCODING 229
SWIDTH 320 0
DWIDTH 4 0
BBX 4 9 0 0
BITMAP
00
20
70
30
10
30
20
60
40
ENDCHAR

STARTCHAR zayin
ENCODING 230
SWIDTH 480 0
DWIDTH 6 0
BBX 5 9 1 -1
BITMAP
60
F8
38
20
40
40
40
40
00
ENDCHAR

STARTCHAR het
ENCODING 231
SWIDTH 640 0
DWIDTH 8 0
BBX 8 9 0 0
BITMAP
00
10
3E
7F
63
42
C6
84
84
ENDCHAR

STARTCHAR teth
ENCODING 232
SWIDTH 640 0
DWIDTH 8 0
BBX 8 9 0 0
BITMAP
00
42
4F
5F
43
42
46
7C
70
ENDCHAR

STARTCHAR yod
ENCODING 233
SWIDTH 400 0
DWIDTH 5 0
BBX 4 6 1 2
BITMAP
60
70
30
20
60
40
ENDCHAR

STARTCHAR kaphfinal
ENCODING 234
SWIDTH 480 0
DWIDTH 6 0
BBX 6 11 0 -2
BITMAP
00
40
FC
FC
08
10
10
10
20
20
20
ENDCHAR

STARTCHAR kaph
ENCODING 235
SWIDTH 560 0
DWIDTH 7 0
BBX 7 9 0 0
BITMAP
00
10
3C
3E
06
04
0C
F8
E0
ENDCHAR

STARTCHAR lamed
ENCODING 236
SWIDTH 560 0
DWIDTH 7 0
BBX 6 11 1 0
BITMAP
00
80
80
80
FC
FC
08
08
30
E0
C0
ENDCHAR

STARTCHAR memfinal
ENCODING 237
SWIDTH 640 0
DWIDTH 8 0
BBX 8 9 0 0
BITMAP
00
10
3F
7F
23
62
46
FC
FC
ENDCHAR

STARTCHAR mem
ENCODING 238
SWIDTH 720 0
DWIDTH 9 0
BBX 9 9 0 0
BITMAP
0000
3200
3F00
1B80
3080
6180
4100
CF00
9E00
ENDCHAR

STARTCHAR nunfinal
ENCODING 239
SWIDTH 320 0
DWIDTH 4 0
BBX 4 12 0 -3
BITMAP
00
20
70
30
10
30
20
20
60
40
40
40
ENDCHAR

STARTCHAR nun
ENCODING 240
SWIDTH 400 0
DWIDTH 5 0
BBX 5 9 0 0
BITMAP
00
10
38
18
08
18
10
F0
E0
ENDCHAR

STARTCHAR samekh
ENCODING 241
SWIDTH 720 0
DWIDTH 9 0
BBX 8 9 1 0
BITMAP
00
20
7F
FF
C3
42
46
7C
78
ENDCHAR

STARTCHAR ayin
ENCODING 242
SWIDTH 560 0
DWIDTH 7 0
BBX 7 10 0 -1
BITMAP
00
22
66
66
26
24
2C
38
F0
C0
ENDCHAR

STARTCHAR pefinal
ENCODING 243
SWIDTH 560 0
DWIDTH 7 0
BBX 7 12 0 -3
BITMAP
00
1C
3E
66
42
C6
E4
44
0C
08
08
08
ENDCHAR

STARTCHAR pe
ENCODING 244
SWIDTH 560 0
DWIDTH 7 0
BBX 7 9 0 0
BITMAP
00
1C
3E
26
62
64
04
7C
F8
ENDCHAR

STARTCHAR zadikfinal
ENCODING 245
SWIDTH 480 0
DWIDTH 6 0
BBX 6 12 0 -3
BITMAP
00
C4
CC
CC
58
70
60
40
40
C0
C0
80
ENDCHAR

STARTCHAR zadik
ENCODING 246
SWIDTH 560 0
DWIDTH 7 0
BBX 7 9 0 0
BITMAP
00
62
36
36
14
18
08
F8
F8
ENDCHAR

STARTCHAR kof
ENCODING 247
SWIDTH 640 0
DWIDTH 8 0
BBX 8 12 0 -3
BITMAP
00
10
3F
3F
03
22
26
5C
78
80
80
80
ENDCHAR

STARTCHAR resh
ENCODING 248
SWIDTH 480 0
DWIDTH 6 0
BBX 6 9 0 0
BITMAP
00
20
7C
7C
0C
08
18
10
10
ENDCHAR

STARTCHAR shin
ENCODING 249
SWIDTH 800 0
DWIDTH 10 0
BBX 9 9 1 0
BITMAP
0000
9100
5B80
5980
7100
6300
4600
7C00
7800
ENDCHAR

STARTCHAR taf
ENCODING 250
SWIDTH 640 0
DWIDTH 8 0
BBX 8 9 0 0
BITMAP
00
20
7E
7F
23
22
26
E4
C4
ENDCHAR
ENDFONT
